<svg width="206" height="43" xmlns="http://www.w3.org/2000/svg" stroke="null">
 <g id="Layer_1">
  <title>Layer 1</title>
  <g>
   <path fill="#5044E5" d="m21.9994,1.5c11.046,0 20,8.954 20,20l0,14c0,1.5912 -0.6321,3.1174 -1.7573,4.2426c-1.1252,1.1252 -2.6514,1.7574 -4.2427,1.7574l-13,0l0,-8.774c0,-2.002 0.122,-4.0761 1.172,-5.7801c0.7518,-1.2211 1.7574,-2.2662 2.9486,-3.0646c1.1912,-0.7983 2.5402,-1.3312 3.9554,-1.5623l0.383,-0.062c0.1579,-0.0539 0.295,-0.1559 0.3921,-0.2917c0.097,-0.1357 0.1492,-0.2985 0.1492,-0.4653c0,-0.1669 -0.0522,-0.3296 -0.1492,-0.4653c-0.0971,-0.1358 -0.2342,-0.2378 -0.3921,-0.2917l-0.383,-0.062c-2.0678,-0.3377 -3.9773,-1.3165 -5.4588,-2.7981c-1.4816,-1.4815 -2.4604,-3.391 -2.7982,-5.4589l-0.062,-0.383c-0.0539,-0.1579 -0.1559,-0.295 -0.2917,-0.3921c-0.1357,-0.097 -0.2984,-0.14915 -0.4653,-0.14915c-0.1668,0 -0.3295,0.05215 -0.4653,0.14915c-0.1357,0.0971 -0.2377,0.2342 -0.2917,0.3921l-0.062,0.383c-0.231,1.4153 -0.7638,2.7642 -1.5622,3.9555c-0.7983,1.1912 -1.8436,2.1968 -3.0648,2.9484c-1.704,1.05 -3.778,1.1721 -5.77996,1.1721l-8.75,0c0.523,-10.581 9.266,-19 19.97596,-19z"/>
   <path fill="#5044E5" d="m2,22.5l8.774,0c2.002,0 4.076,0.1221 5.78,1.1721c1.332,0.8207 2.4532,1.9419 3.274,3.2738c1.05,1.704 1.172,3.7781 1.172,5.7801l0,8.774l-13,0c-1.5913,0 -3.11742,-0.6322 -4.24264,-1.7574c-1.12522,-1.1252 -1.75736,-2.6514 -1.75736,-4.2426l0,-13zm40,-19c0,0.53043 -0.2107,1.03914 -0.5858,1.41421c-0.3751,0.37508 -0.8838,0.58579 -1.4142,0.58579c-0.5304,0 -1.0391,-0.21071 -1.4142,-0.58579c-0.3751,-0.37507 -0.5858,-0.88378 -0.5858,-1.41421c0,-0.53043 0.2107,-1.03914 0.5858,-1.41421c0.3751,-0.37508 0.8838,-0.58579 1.4142,-0.58579c0.5304,0 1.0391,0.21071 1.4142,0.58579c0.3751,0.37507 0.5858,0.88378 0.5858,1.41421z"/>
  </g>
  <text style="cursor: move;" font-weight="bold" xml:space="preserve" text-anchor="start" font-family="'Libre Franklin'" font-size="30" id="svg_1" y="32.3" x="69.22501" stroke-width="0" stroke="#000" fill="#000000">Blogsy</text>
 </g>

</svg>